<svg xmlns="http://www.w3.org/2000/svg" viewBox="0 0 64 64" role="img" aria-labelledby="title desc">
  <title id="title">FoodSupply logo mark</title>
  <desc id="desc">A fresh food supply basket and leaf mark.</desc>
  <defs>
    <linearGradient id="fs-bg" x1="10" y1="7" x2="55" y2="58" gradientUnits="userSpaceOnUse">
      <stop offset="0" stop-color="#22c55e"/>
      <stop offset="0.52" stop-color="#15803d"/>
      <stop offset="1" stop-color="#0f5132"/>
    </linearGradient>
    <linearGradient id="fs-leaf" x1="34" y1="11" x2="51" y2="31" gradientUnits="userSpaceOnUse">
      <stop offset="0" stop-color="#dcfce7"/>
      <stop offset="1" stop-color="#86efac"/>
    </linearGradient>
  </defs>
  <rect width="64" height="64" rx="18" fill="url(#fs-bg)"/>
  <path d="M17 28h30l-3.2 16.7A6.7 6.7 0 0 1 37.2 50H26.8a6.7 6.7 0 0 1-6.6-5.3L17 28Z" fill="none" stroke="#fff" stroke-width="4" stroke-linejoin="round"/>
  <path d="M24 28c0-6.2 3.5-10 8-10s8 3.8 8 10" fill="none" stroke="#fff" stroke-width="4" stroke-linecap="round"/>
  <path d="M32 36h8M27 36h.1M27 43h10" fill="none" stroke="#fff" stroke-width="4" stroke-linecap="round"/>
  <path d="M38.5 16.4c7.4-6.2 15.1-3 15.1-3s.9 8.4-6.7 13.9c-4 2.9-8 2.2-10.8.5 1.9-4.6 5.2-7.8 10.8-10.1-3.8.3-7.2 1.8-10.2 4.5-.3-2 .2-4 1.8-5.8Z" fill="url(#fs-leaf)"/>
  <circle cx="23" cy="50" r="2.6" fill="#bbf7d0"/>
  <circle cx="42" cy="50" r="2.6" fill="#bbf7d0"/>
</svg>
